<svg width="100" height="100" viewBox="0 0 100 100" fill="none" xmlns="http://www.w3.org/2000/svg">
<mask id="mask0_42_19" style="mask-type:alpha" maskUnits="userSpaceOnUse" x="0" y="0" width="100" height="100">
<rect width="100" height="100" fill="#D9D9D9"/>
</mask>
<g mask="url(#mask0_42_19)">
<path d="M49.9998 50C45.4165 50 41.4929 48.368 38.229 45.1042C34.9651 41.8403 33.3332 37.9167 33.3332 33.3333C33.3332 28.75 34.9651 24.8264 38.229 21.5625C41.4929 18.2986 45.4165 16.6667 49.9998 16.6667C54.5832 16.6667 58.5068 18.2986 61.7707 21.5625C65.0346 24.8264 66.6665 28.75 66.6665 33.3333C66.6665 37.9167 65.0346 41.8403 61.7707 45.1042C58.5068 48.368 54.5832 50 49.9998 50ZM16.6665 83.3333V71.6667C16.6665 69.3055 17.2741 67.1354 18.4894 65.1562C19.7047 63.1771 21.3193 61.6667 23.3332 60.625C27.6387 58.4722 32.0137 56.8576 36.4582 55.7812C40.9026 54.7048 45.4165 54.1667 49.9998 54.1667C54.5832 54.1667 59.0971 54.7048 63.5415 55.7812C67.9859 56.8576 72.361 58.4722 76.6665 60.625C78.6804 61.6667 80.295 63.1771 81.5103 65.1562C82.7255 67.1354 83.3332 69.3055 83.3332 71.6667V83.3333H16.6665ZM24.9998 75H74.9998V71.6667C74.9998 70.9028 74.8089 70.2083 74.4269 69.5833C74.045 68.9583 73.5415 68.4722 72.9165 68.125C69.1665 66.25 65.3818 64.8437 61.5623 63.9062C57.7429 62.9687 53.8887 62.5 49.9998 62.5C46.1109 62.5 42.2568 62.9687 38.4373 63.9062C34.6179 64.8437 30.8332 66.25 27.0832 68.125C26.4582 68.4722 25.9547 68.9583 25.5728 69.5833C25.1908 70.2083 24.9998 70.9028 24.9998 71.6667V75ZM49.9998 41.6667C52.2915 41.6667 54.2533 40.8507 55.8853 39.2187C57.5172 37.5868 58.3332 35.625 58.3332 33.3333C58.3332 31.0417 57.5172 29.0799 55.8853 27.4479C54.2533 25.816 52.2915 25 49.9998 25C47.7082 25 45.7464 25.816 44.1144 27.4479C42.4825 29.0799 41.6665 31.0417 41.6665 33.3333C41.6665 35.625 42.4825 37.5868 44.1144 39.2187C45.7464 40.8507 47.7082 41.6667 49.9998 41.6667Z" fill="#0066B2"/>
</g>
</svg>
